<svg width="220" height="221" viewBox="0 0 220 221" fill="none" xmlns="http://www.w3.org/2000/svg">
<path d="M110.697 211C112.32 211 113.936 210.846 115.534 210.556L115.354 210.863L116.141 210.821H116.175L116.235 210.812L116.166 210.445C116.166 210.445 116.184 210.445 116.192 210.445L116.483 210.624L116.201 210.445C117.995 210.077 119.773 209.539 121.508 208.821L172.121 187.863C173.685 187.214 175.164 186.437 176.574 185.54H177.403L177.771 185.215L177.591 184.856C178.89 183.95 180.121 182.934 181.258 181.815L181.548 181.533C182.728 180.371 183.787 179.115 184.736 177.782L184.719 178.371L185.497 177.44L185.54 177.389L185.223 177.158H185.599H185.206L185.189 177.141C186.257 175.552 187.172 173.852 187.916 172.049C192.223 161.6 202.317 137.199 207.556 124.52L208.804 121.496C209.521 119.753 210.068 117.959 210.427 116.122C210.427 116.113 210.427 116.096 210.427 116.088L210.88 116.105V115.558L210.496 115.66C210.786 114.046 210.949 112.397 210.966 110.739V110.585C210.983 108.894 210.838 107.228 210.564 105.587L210.88 105.895V104.887V104.853V104.81L210.487 104.853L210.752 104.588L210.47 104.853H210.436C210.06 102.947 209.496 101.076 208.727 99.2564C204.129 88.3033 192.967 61.6212 187.839 49.0875C186.386 45.5334 184.266 42.3465 181.548 39.6296L181.223 39.3135C178.548 36.6393 175.42 34.5461 171.925 33.1022C160.421 28.3348 132.926 16.9204 121.662 12.2384C119.867 11.4951 118.021 10.9312 116.132 10.5638V10.4528L116.175 10.1281L115.825 10.0768L115.662 10.4784C113.987 10.1452 112.235 9.9914 110.466 9.99994H110.295C106.569 10.0341 102.945 10.7603 99.5261 12.1786C88.1847 16.8606 60.3312 28.3775 48.9385 33.068C45.3489 34.5461 42.1525 36.6991 39.4261 39.4588L39.2808 39.604C38.1099 40.7916 37.0672 42.0646 36.1271 43.4145L35.8707 43.0642L35.5288 43.4829L35.8365 43.7733L35.7767 43.7306L35.828 43.7819L35.8536 43.8075C34.8109 45.3625 33.9306 47.0114 33.2041 48.7543C28.4949 60.0919 16.9484 87.9103 12.2221 99.2649C10.7607 102.785 10.0171 106.493 10.0171 110.295C10.0171 110.363 10.0171 110.44 10.0171 110.508V110.679C10.0342 112.286 10.1795 113.883 10.4615 115.447L10 115.071L10.1111 116.088V116.105V116.147L10.4957 116.122L10.2735 116.404L10.5128 116.122H10.5812C10.9487 117.942 11.4871 119.727 12.205 121.47L33.1016 171.904C33.7853 173.561 34.6229 175.133 35.5972 176.62L35.3493 177.278L35.5459 177.457L35.9476 177.902L36.1784 177.466C37.1185 178.799 38.1697 180.063 39.3406 181.234L39.7594 181.652C40.9303 182.823 42.1952 183.874 43.537 184.822L43.1353 185.121L43.5712 185.488L43.8362 185.172L43.9045 185.087C45.5113 186.18 47.2292 187.112 49.0496 187.872C60.6132 192.674 88.3557 204.182 99.5005 208.821C101.244 209.548 103.022 210.094 104.825 210.462L104.799 210.846L105.543 210.94L105.389 210.564C107.039 210.863 108.705 211.026 110.38 211.026H110.697V211ZM176.677 176.62C170.07 183.224 160.13 186.326 147.9 185.617C148.806 184.13 149.652 182.746 150.438 181.447C158.284 168.546 168.657 158.18 181.557 150.348C182.847 149.562 184.223 148.733 185.685 147.836C186.394 160.062 183.283 170.016 176.677 176.62ZM67.2625 158.029C68.5616 158.097 69.7752 158.165 70.9205 158.225C82.7661 158.846 93.0648 163.095 101.817 170.973C102.705 171.767 103.646 172.613 104.654 173.519L103.671 173.698L104.312 173.895C103.432 174.288 102.62 174.715 101.774 175.168C100.295 175.945 98.774 176.757 96.7314 177.415C91.0735 179.858 85.4412 179.79 80.4329 177.218C74.1511 173.988 69.0488 166.829 66.9719 158.388L67.8351 158.832L67.2454 158.029H67.2625ZM67.1514 62.4158C70.288 51.5567 77.5612 40.7659 89.0137 42.0048C94.0733 42.1073 98.5774 44.286 102.928 46.3877C103.381 46.6099 103.834 46.8235 104.278 47.037L103.552 47.2592L104.534 47.4386C103.552 48.3186 102.629 49.1474 101.765 49.9248C93.0364 57.7794 82.8459 62.0142 71.194 62.6294C70.006 62.6892 68.7325 62.7575 67.3736 62.8344L68.0317 61.9288L67.1514 62.4158ZM153.763 62.9028C152.464 62.8344 151.25 62.7661 150.105 62.7063C138.265 62.0797 127.966 57.8306 119.209 49.959C118.329 49.1644 117.38 48.3186 116.372 47.413L117.346 47.2336L116.705 47.037C117.585 46.644 118.397 46.2169 119.243 45.764C120.722 44.9866 122.243 44.1749 124.286 43.517C129.944 41.0735 135.576 41.1419 140.584 43.7135C146.866 46.9431 151.968 54.1027 154.045 62.5439L153.182 62.0997L153.772 62.9028H153.763ZM104.876 58.6565C107.987 55.5466 113.038 55.5466 116.158 58.6565L162.378 104.861C165.489 107.971 165.489 113.02 162.378 116.139L116.158 162.343C113.047 165.453 107.996 165.453 104.876 162.343L58.6561 116.139C55.5451 113.029 55.5451 107.98 58.6561 104.861L104.876 58.6565ZM153.874 158.482C151.498 167.88 146.55 174.552 139.858 177.321C133.166 180.089 124.944 178.876 116.628 173.912L117.491 173.655L116.525 173.476C117.508 172.596 118.431 171.767 119.295 170.99C128.006 163.152 138.18 158.926 149.815 158.311C151.003 158.251 152.276 158.183 153.635 158.106L153.071 158.909L153.883 158.482H153.874ZM173.711 146.153L173.685 146.179C169.959 149.75 165.164 151.424 160.524 153.048C159.994 153.236 159.464 153.415 158.942 153.603L159.293 152.954L158.481 153.509C158.558 152.168 158.618 150.912 158.686 149.733C159.324 137.669 163.657 127.174 171.685 118.249C172.497 117.352 173.361 116.395 174.275 115.361L174.429 116.361L174.711 115.472C180.326 125.639 182.899 138.78 173.711 146.162V146.153ZM204.094 110.449C204.094 119.787 199.257 129.014 190.112 137.174C189.727 135.576 189.36 134.081 189.009 132.671C185.397 117.896 185.369 103.212 188.924 88.6194C189.292 87.1072 189.685 85.4839 190.112 83.741C199.265 91.8917 204.094 101.11 204.094 110.44V110.449ZM179.266 89.0124V89.0466C179.155 94.2412 176.925 98.8463 174.771 103.306C174.54 103.776 174.318 104.237 174.096 104.699L173.89 103.998L173.694 104.989C172.779 103.964 171.925 103.016 171.121 102.119C163.065 93.1704 158.72 82.7214 158.088 70.7716C158.019 69.5327 157.951 68.2084 157.874 66.7987L158.729 67.3626L158.31 66.6193C169.455 69.8317 180.54 77.3161 179.266 89.0039V89.0124ZM176.694 44.3201C182.685 50.3093 185.796 59.041 185.796 69.7378C185.796 70.8314 185.762 71.9506 185.693 73.0869C184.206 72.1813 182.822 71.3354 181.523 70.5494C168.617 62.7063 158.247 52.337 150.413 39.4417C149.627 38.1516 148.798 36.776 147.9 35.315C160.139 34.6145 170.087 37.7244 176.694 44.3201ZM88.6633 32.077C87.1591 31.7096 85.5609 31.3251 83.843 30.9065C90.7914 24.0117 100.013 16.365 110.534 16.5444C120.944 16.3907 129.833 23.6272 137.183 30.8979C135.602 31.2824 134.123 31.6412 132.73 31.983C117.956 35.5941 103.27 35.6226 88.6719 32.0684L88.6633 32.077ZM35.3152 72.5828C34.734 60.5789 37.8364 50.8219 44.3575 44.3116C50.9641 37.7073 60.9038 34.6059 73.1426 35.315C72.2367 36.8017 71.3906 38.1857 70.6043 39.4844C62.7584 52.3854 52.3857 62.7518 39.4859 70.5836C38.2979 71.3013 37.0416 72.0702 35.7083 72.8819L36.2809 71.1646L35.3323 72.5914L35.3152 72.5828ZM47.9129 74.172L47.9386 74.1463C51.6649 70.5751 56.4596 68.9005 61.1004 67.2772C61.6303 67.0892 62.1602 66.9098 62.6815 66.7218L62.2969 67.431L63.143 66.8329C63.0661 68.1657 63.0063 69.4131 62.9379 70.5921C62.2998 82.6559 57.9666 93.1505 49.9385 102.076C49.1265 102.981 48.2548 103.947 47.3317 104.981L47.1523 103.964L46.8959 104.827C41.2893 94.6599 38.7253 81.5367 47.9044 74.1634L47.9129 74.172ZM16.9313 110.474C16.9313 101.136 21.7687 91.9088 30.9136 83.7495C31.3068 85.3472 31.6657 86.8423 32.0162 88.252C35.6285 103.027 35.657 117.711 32.1016 132.304C31.7341 133.816 31.341 135.439 30.9136 137.182C21.7602 129.031 16.9313 119.813 16.9228 110.483L16.9313 110.474ZM41.7593 131.911V131.876C41.8704 126.682 44.1011 122.077 46.2549 117.617C46.4856 117.147 46.7078 116.677 46.9301 116.207L47.1266 116.882L47.3147 115.925C48.2291 116.95 49.0838 117.899 49.8872 118.796C57.9438 127.75 62.2884 138.199 62.9208 150.143C62.9892 151.373 63.0576 152.689 63.1345 154.107L62.314 153.535L62.7243 154.304C51.5623 151.1 40.4688 143.633 41.7422 131.911H41.7593ZM44.3319 176.603C37.7339 169.999 34.6143 160.071 35.3323 147.828C36.8194 148.733 38.2039 149.579 39.503 150.365C52.4085 158.208 62.7784 168.577 70.6128 181.473C71.3991 182.763 72.2281 184.138 73.1255 185.608C60.8867 186.309 50.9384 183.199 44.3319 176.603ZM83.843 190.017C85.4241 189.632 86.9027 189.273 88.2958 188.931C103.076 185.32 117.765 185.292 132.362 188.846C133.867 189.213 135.465 189.598 137.191 190.017C130.243 196.911 121.021 204.558 110.5 204.379C100.09 204.532 91.2017 197.296 83.8516 190.025L83.843 190.017Z" fill="white"/>
</svg>
