<svg width="165" height="25" viewBox="0 0 165 25" fill="none" xmlns="http://www.w3.org/2000/svg">
<g clip-path="url(#clip0_2173_310)">
<path d="M73.246 7.70069C73.3097 7.79112 73.354 7.85318 73.3982 7.9117L76.1797 11.5148C78.6496 14.7136 82.5675 19.911 84.5947 22.5406C85.2905 23.4414 86.6737 23.9751 87.7059 24.0035C88.2938 24.0195 88.7346 24.0283 89.0161 24.0283H89.8713V1.19155H85.8168L85.7619 17.8313L84.1808 15.7815C83.5487 14.9623 82.9361 14.1697 82.3253 13.377L78.4779 8.38554C76.9057 6.34639 75.7003 4.66698 74.1281 2.62251C73.4146 1.69514 72.003 1.15963 70.9425 1.15432C70.7017 1.15432 70.491 1.15254 70.2821 1.15254H68.2407V23.9929H72.2916L72.1978 6.23959L73.2442 7.70069H73.246Z" fill="#FAFAFA"/>
<path d="M139.777 4.7326V1.18446H121.116V24.0124H139.765V20.3898H124.88V13.9443H139.777V10.6834H124.889V4.7326H139.777Z" fill="#FAFAFA"/>
<path d="M160.204 23.273C161.575 22.6701 162.562 21.9076 163.31 20.8721C164.09 19.7922 164.491 18.3489 164.407 16.9126C164.329 15.5561 163.841 14.3468 163.033 13.5063C161.757 12.1764 160.11 11.7402 158.393 11.3767C158.021 11.2987 157.37 11.1958 156.615 11.0788C153.246 10.554 150.144 10.0096 149.214 9.13541C148.743 8.69211 148.492 8.00944 148.526 7.2647C148.559 6.50933 148.885 5.82842 149.4 5.44364C149.839 5.11561 150.268 4.88687 150.677 4.76629C152.315 4.28044 154.106 4.20596 156.314 4.53223C158.797 4.89928 160.795 5.53762 162.591 6.53947C162.591 5.25391 162.594 3.92935 162.584 2.61719C155.51 -0.411398 150.659 0.955724 148.897 1.68627C147.37 2.3193 146.226 3.24135 145.401 4.50386C144.607 5.72026 144.278 7.42961 144.54 8.96695C144.71 9.95994 145.211 11.3341 146.637 12.2491C148.862 13.6765 151.472 14.0276 153.997 14.3681C154.843 14.4815 155.712 14.5986 156.557 14.7546C156.69 14.7794 156.844 14.8007 157.01 14.8238C158.324 15.0064 160.496 15.3096 160.588 17.535C160.631 18.5439 160.236 19.3507 159.446 19.8667C158.678 20.3703 157.883 20.5458 156.927 20.6575C153.908 21.0086 150.909 20.7444 148.014 19.8738C146.736 19.489 145.7 19.0262 144.77 18.4198C144.77 19.5812 144.767 20.9891 144.777 22.3279C150.061 24.8405 155.822 25.1933 160.199 23.2712L160.204 23.273Z" fill="#FAFAFA"/>
<path d="M50.7672 19.2124C51.5816 17.5562 51.9605 15.6554 51.9623 13.2297C51.9623 10.4174 51.9623 7.60516 51.9623 4.79289V1.19156H47.9839V3.89034C47.9839 6.83382 47.9839 9.95285 47.9804 12.8963C47.9804 13.4407 47.9574 13.9868 47.9131 14.517C47.6599 17.5421 46.224 19.5919 43.7612 20.4483C42.5112 20.8827 41.185 20.959 39.7066 20.6824C38.5115 20.4572 37.536 19.9749 36.7268 19.2035C35.3848 17.9233 34.6925 16.1306 34.6712 13.8751C34.6429 10.8128 34.6465 7.50409 34.6482 4.58543V4.35492C34.6482 3.29633 34.65 2.23951 34.6482 1.18092H30.622C30.6256 2.36009 30.6238 3.54989 30.622 4.7397C30.6185 7.9988 30.6167 11.359 30.6946 14.65C30.7654 17.5846 31.7835 19.9908 33.724 21.8012C35.0572 23.046 36.6773 23.8174 38.6762 24.156C41.7038 24.6703 44.3207 24.383 46.6773 23.2801C48.4761 22.4378 49.8518 21.0671 50.7654 19.2106L50.7672 19.2124Z" fill="#FAFAFA"/>
<path d="M116.412 1.55683C116.383 1.3405 116.233 1.18446 116.054 1.18446H94.7421C94.5632 1.18446 94.4127 1.34228 94.3844 1.55683L94.0055 4.43116H103.467V24H107.288V4.41875H116.791L116.412 1.55683Z" fill="#FAFAFA"/>
<path d="M61.5285 1.18092H57.3748V23.9929H61.5285V1.18092Z" fill="#FAFAFA"/>
<path d="M29.2047 24.0585L28.0449 21.2515C27.8254 20.8721 27.45 20.6433 27.0481 20.6433H22.4005L23.2185 19.5032C24.295 17.9091 24.9465 15.9976 25.1537 13.8201C25.4458 10.7614 24.6278 7.53954 22.9671 5.20249C21.9578 3.78926 18.9922 0.500015 13.1813 0.500015C12.7156 0.500015 12.2341 0.521293 11.7507 0.56385C8.8718 0.815641 6.51168 1.75011 4.73406 3.34065C2.67847 5.17766 1.28151 8.10873 0.996456 11.1781C0.711399 14.2475 1.53647 17.48 3.20432 19.8224C6.67634 24.7021 11.9242 24.4326 16.9986 24.172L29.2029 24.0585H29.2047ZM13.1176 20.8632C11.3842 20.8632 9.81019 20.5174 8.5655 19.8614C5.70254 18.3524 4.20113 14.8982 4.7376 11.0593C5.2245 7.58564 7.13137 5.22909 10.1094 4.42761C12.7758 3.7077 15.143 3.89388 17.3438 4.9968C20.3874 6.52173 21.9171 10.2383 21.2372 14.4638C20.5751 18.59 17.6908 20.8614 13.1176 20.8614V20.8632Z" fill="#FAFAFA"/>
</g>
<defs>
<clipPath id="clip0_2173_310">
<rect width="163.475" height="24" fill="white" transform="translate(0.942505 0.500015)"/>
</clipPath>
</defs>
</svg>
