<?xml version="1.0" encoding="UTF-8"?>
<svg id="Layer_2" data-name="Layer 2" xmlns="http://www.w3.org/2000/svg" viewBox="0 0 157.72 48.75">
  <g id="Layer_1-2" data-name="Layer 1">
    <path d="m39.08,7.93v24.07h-4.87V7.93h4.87Z" style="fill: #fff;"/>
    <path d="m59.14,15.76v16.27c0,5.05-3.94,8.14-8.74,8.14s-8.12-2.82-8.46-7h4.89c.2,1.72,1.72,2.5,3.74,2.5.49.04.99-.02,1.45-.19.46-.17.89-.44,1.23-.79.35-.35.62-.77.78-1.24.17-.46.23-.96.19-1.45v-1.98c-1.39.86-3,1.3-4.63,1.27-2.1.02-4.12-.79-5.63-2.25-1.51-1.46-2.39-3.45-2.45-5.55-.03-1.07.15-2.14.54-3.13.39-1,.99-1.9,1.74-2.66.76-.76,1.66-1.35,2.66-1.75,1-.4,2.06-.59,3.14-.55,1.63-.02,3.24.42,4.63,1.27v-.86l4.91-.04Zm-4.91,9.59v-3.97c-.41-.62-.97-1.12-1.63-1.46-.66-.34-1.4-.51-2.14-.49-.54-.03-1.09.05-1.59.25-.51.19-.97.49-1.35.88-.38.38-.68.85-.87,1.35-.19.51-.28,1.05-.24,1.59.06,1.03.52,2,1.27,2.7.76.7,1.76,1.08,2.79,1.07.74.04,1.48-.11,2.14-.45.66-.34,1.22-.84,1.63-1.47Z" style="fill: #fff;"/>
    <path d="m78.73,23.69c.01,1.72-.49,3.41-1.44,4.85-.95,1.44-2.31,2.56-3.9,3.23-1.59.67-3.35.85-5.04.51s-3.25-1.16-4.47-2.38c-1.22-1.22-2.06-2.77-2.39-4.46-.34-1.69-.16-3.44.5-5.04.66-1.59,1.78-2.95,3.22-3.91,1.44-.96,3.13-1.46,4.85-1.46,1.15-.04,2.29.15,3.37.57,1.07.42,2.04,1.05,2.86,1.86s1.45,1.78,1.88,2.85c.42,1.07.62,2.21.58,3.36Zm-4.75,0c.03-.54-.05-1.08-.23-1.59-.18-.51-.47-.97-.84-1.36-.37-.39-.82-.71-1.31-.92-.5-.21-1.03-.32-1.57-.32s-1.07.11-1.57.32c-.5.21-.94.53-1.31.92-.37.39-.66.86-.84,1.36s-.26,1.05-.23,1.59c-.03.54.05,1.08.23,1.59s.47.97.84,1.36c.37.39.82.71,1.31.92.5.21,1.03.32,1.57.32s1.08-.11,1.57-.32c.5-.21.94-.53,1.31-.92.37-.39.66-.86.84-1.36.18-.51.26-1.05.23-1.59Z" style="fill: #fff;"/>
    <path d="m109.22,15.8v16.18h-4.8v-.91c-1.39.87-3,1.33-4.65,1.31-2.17-.12-4.21-1.07-5.7-2.65-1.49-1.58-2.32-3.67-2.32-5.84s.83-4.26,2.32-5.84c1.49-1.58,3.53-2.53,5.7-2.65,1.64-.02,3.26.44,4.65,1.31v-.91h4.8Zm-4.84,10.58v-4.94c-.43-.62-1.01-1.12-1.69-1.44-.68-.33-1.43-.47-2.19-.41-1.15,0-2.25.46-3.06,1.27-.81.81-1.27,1.91-1.27,3.06s.46,2.25,1.27,3.06c.81.81,1.91,1.27,3.06,1.27.75.05,1.5-.09,2.19-.41.68-.33,1.26-.82,1.69-1.44Z" style="fill: #fff;"/>
    <path d="m129.01,23.23v8.77h-4.79v-8.2c0-2.66-1.31-4.04-3.67-4.04-.73.06-1.44.27-2.08.63-.64.35-1.2.84-1.64,1.42v10.19h-4.8V15.83h4.84v1.21c1.32-1.07,2.98-1.64,4.67-1.62,4.31,0,7.47,3.03,7.47,7.81Z" style="fill: #fff;"/>
    <path d="m153.53,8.53h-1.21v2.86h-.7v-2.86h-1.21v-.64h3.13v.64Z" style="fill: #fff;"/>
    <path d="m157.72,11.42h-.7v-1.95l-.92,1.39h-.43l-1.01-1.39v1.98h-.71v-3.56h.5l1.4,2.12,1.4-2.12h.47v3.53Z" style="fill: #fff;"/>
    <path d="m31.95,31.97h-4.98l-3.24-12.08-6.98,12.08h-5.58l10.8-18.7-1.76-6.53L5.58,31.97H0L18.49,0h4.91l2.12,7.96h5.04l-3.43,5.98,4.82,18.03Z" style="fill: #fff;"/>
    <path d="m148.56,7.93v24.07h-4.91v-.91c-1.39.87-3.01,1.33-4.65,1.31-2.17-.12-4.21-1.07-5.7-2.65-1.49-1.58-2.32-3.67-2.32-5.84s.83-4.26,2.32-5.84c1.49-1.58,3.53-2.53,5.7-2.65,1.64-.02,3.26.44,4.65,1.31V7.93h4.91Zm-4.91,18.45v-4.98c-.44-.61-1.02-1.1-1.7-1.42-.68-.32-1.42-.47-2.17-.42-1.15,0-2.26.46-3.08,1.27-.82.82-1.28,1.92-1.28,3.08s.46,2.26,1.28,3.08c.82.82,1.92,1.27,3.08,1.27.75.04,1.5-.11,2.18-.44.68-.33,1.26-.83,1.69-1.44Z" style="fill: #fff;"/>
    <path d="m90.72,19.9c-.96,0-1.9.21-2.77.6-.87.39-1.65.97-2.28,1.68v9.76h-4.72V15.87h4.84v1.2c.69-.53,1.49-.92,2.33-1.13.85-.22,1.73-.26,2.59-.14v4.1Z" style="fill: #fff;"/>
    <path d="m69.17,48.51v-7.88h4.9v1.12h-3.73v2.16h2.4v1.12h-2.4v3.49h-1.17Z" style="fill: #fff;"/>
    <path d="m80.86,48.51c-.45.17-.92.25-1.4.24-.44,0-.88-.08-1.3-.24-.37-.14-.71-.36-.99-.64-.26-.28-.48-.59-.64-.93-.17-.35-.29-.72-.38-1.1-.15-.77-.15-1.57,0-2.34.09-.38.21-.76.38-1.12.17-.34.38-.66.64-.93.28-.28.62-.49.99-.63.44-.18.92-.26,1.4-.24.48-.02.95.06,1.4.24.37.14.7.35.98.63.26.27.48.59.64.93.18.35.3.73.38,1.12.15.77.15,1.57,0,2.34-.07.38-.2.75-.38,1.1-.16.35-.38.66-.64.93-.3.29-.67.51-1.07.64Zm-2.37-1.16c.31.18.67.28,1.03.26.37,0,.73-.09,1.05-.28.29-.18.53-.43.7-.73.17-.3.29-.62.36-.95.08-.33.13-.67.13-1,0-.35-.04-.7-.13-1.05-.07-.33-.19-.65-.36-.95-.17-.29-.41-.53-.7-.7-.32-.18-.68-.27-1.05-.27-.36-.01-.72.08-1.03.28-.3.17-.54.42-.7.73-.17.29-.29.61-.38.93-.07.33-.11.68-.11,1.02,0,.35.04.7.11,1.05.08.33.21.64.38.93.17.27.41.49.7.64v.07Z" style="fill: #fff;"/>
    <path d="m88.84,48.68c-.41.03-.82-.03-1.21-.18-.38-.15-.73-.38-1.02-.68-.28-.3-.5-.66-.63-1.05-.13-.39-.17-.81-.12-1.22v-4.92h1.17v4.92c-.03.28,0,.56.08.83.08.27.22.52.39.73.38.29.85.45,1.33.45s.94-.16,1.33-.45c.2-.21.35-.45.44-.72.1-.27.14-.55.11-.84v-4.92h1.17v4.92c.05.41,0,.83-.12,1.22-.13.39-.35.75-.63,1.05-.29.3-.63.53-1.02.68-.39.15-.8.21-1.21.18h-.07Z" style="fill: #fff;"/>
    <path d="m101,48.51h-1.1l-3.43-5.35c-.11-.19-.22-.38-.31-.59v5.94h-1.17v-7.88h1.19l3.34,5.28c.12.19.23.39.32.6v-5.88h1.17v7.88Z" style="fill: #fff;"/>
    <path d="m104.23,40.63h2.22c.6-.01,1.19.11,1.75.35.46.2.87.51,1.19.91.28.38.5.81.64,1.25.13.45.2.92.2,1.39,0,.47-.06.94-.2,1.39-.14.45-.34.87-.61,1.25-.3.42-.71.74-1.19.95-.57.25-1.19.37-1.81.35h-2.18v-7.85Zm2.37,6.8c.39,0,.78-.08,1.13-.25.3-.16.56-.4.75-.68.18-.28.31-.59.39-.91.08-.33.13-.67.13-1,.02-.72-.18-1.42-.57-2.02-.19-.27-.45-.49-.75-.63-.3-.14-.63-.21-.96-.19h-1.31v5.69h1.19Z" style="fill: #fff;"/>
    <path d="m117.83,48.51l-.63-1.81h-3.2l-.64,1.81h-1.23l2.79-7.91h1.21l2.79,7.91h-1.1Zm-.99-2.79l-.99-2.72c-.11-.29-.2-.59-.27-.89,0,.27-.17.56-.28.89l-.93,2.72h2.47Z" style="fill: #fff;"/>
    <path d="m123.64,41.76v6.75h-1.17v-6.75h-2.23v-1.13h5.58v1.13h-2.18Z" style="fill: #fff;"/>
    <path d="m128.67,48.51v-7.88h1.13v7.88h-1.13Z" style="fill: #fff;"/>
    <path d="m137.63,48.51c-.44.17-.92.25-1.4.24-.48.01-.95-.07-1.4-.24-.37-.14-.7-.36-.98-.64-.27-.27-.48-.59-.64-.93-.18-.35-.3-.72-.38-1.1-.15-.77-.15-1.57,0-2.34.07-.39.2-.76.38-1.12.16-.34.38-.66.64-.93.28-.28.61-.49.98-.63.44-.17.92-.25,1.4-.24.48-.02.95.06,1.4.24.37.14.71.35.99.63.26.27.48.59.64.93.17.36.29.73.38,1.12.15.77.15,1.57,0,2.34-.09.38-.21.75-.38,1.1-.16.35-.38.66-.64.93-.28.28-.62.5-.99.64Zm-2.37-1.16c.32.18.68.27,1.05.26.36,0,.72-.09,1.03-.28.3-.18.54-.43.71-.73.16-.3.28-.62.36-.95.07-.33.11-.67.11-1,0-.35-.04-.7-.11-1.05-.08-.33-.21-.65-.36-.95-.17-.29-.41-.54-.71-.7-.31-.18-.67-.28-1.03-.26-.37-.01-.73.09-1.05.28-.29.18-.53.43-.7.73-.16.29-.28.61-.36.93-.08.33-.13.67-.13,1.02,0,.35.04.7.13,1.05.08.33.2.64.36.93.18.27.42.49.7.64v.07Z" style="fill: #fff;"/>
    <path d="m148.7,48.51h-1.1l-3.43-5.35c-.11-.19-.22-.38-.31-.59v5.94h-1.17v-7.88h1.19l3.34,5.28c.08.13.18.33.32.6v-5.88h1.17v7.88Z" style="fill: #fff;"/>
  </g>
</svg>