<?xml version="1.0" encoding="UTF-8"?>
<svg id="Layer_2" data-name="Layer 2" xmlns="http://www.w3.org/2000/svg" viewBox="0 0 633.04 126.61">
  <g id="Your_design" data-name="Your design">
    <polygon points="38.72 53.2 63.31 28.62 87.91 53.22 102.21 38.91 63.31 0 24.41 38.9 38.72 53.2" style="fill: #fff;"/>
    <rect x="4.19" y="53.19" width="20.23" height="20.23" transform="translate(-40.57 28.66) rotate(-45)" style="fill: #fff;"/>
    <polygon points="38.72 73.41 63.31 98 87.91 73.4 102.22 87.69 102.21 87.7 63.31 126.61 24.41 87.72 24.39 87.7 38.72 73.41" style="fill: #fff;"/>
    <rect x="102.19" y="53.19" width="20.23" height="20.23" transform="translate(-11.87 97.96) rotate(-45)" style="fill: #fff;"/>
    <polygon points="77.82 63.3 77.82 63.3 63.31 48.78 52.58 59.51 52.58 59.51 51.34 60.74 48.8 63.28 48.8 63.28 48.78 63.31 48.8 63.33 63.31 77.83 77.82 63.31 77.83 63.31 77.82 63.3" style="fill: #fff;"/>
    <path d="m148.92,30.68h31.12c7.72,0,13.56,1.98,17.52,5.95,3.06,3.07,4.59,6.88,4.59,11.41v.19c0,1.92-.24,3.61-.71,5.08-.48,1.47-1.11,2.8-1.91,3.98-.79,1.18-1.71,2.22-2.76,3.12-1.05.9-2.18,1.66-3.38,2.3,3.88,1.47,6.94,3.47,9.17,6,2.23,2.53,3.34,6.03,3.34,10.5v.19c0,3.07-.59,5.75-1.77,8.06-1.18,2.3-2.87,4.22-5.08,5.75-2.2,1.54-4.85,2.68-7.95,3.45-3.1.77-6.53,1.15-10.29,1.15h-31.89V30.68Zm28.01,27.14c3.26,0,5.85-.56,7.77-1.68,1.92-1.12,2.88-2.93,2.88-5.42v-.19c0-2.24-.83-3.95-2.49-5.13-1.66-1.18-4.06-1.78-7.19-1.78h-14.58v14.19s13.62,0,13.62,0Zm3.93,27.05c3.26,0,5.82-.59,7.67-1.77,1.85-1.18,2.78-3.02,2.78-5.52v-.19c0-2.24-.86-4.01-2.59-5.32-1.73-1.31-4.51-1.96-8.35-1.96h-17.07v14.77h17.55Z" style="fill: #fff;"/>
    <path d="m224.42,30.68h14.77v67.14h-14.77V30.68Z" style="fill: #fff;"/>
    <path d="m261.57,30.68h13.62l31.46,41.34V30.68h14.58v67.14h-12.56l-32.52-42.68v42.68h-14.58V30.68Z" style="fill: #fff;"/>
    <path d="m365.94,30.2h13.62l28.78,67.62h-15.44l-6.14-15.06h-28.39l-6.14,15.06h-15.06l28.78-67.62Zm15.54,39.52l-8.92-21.77-8.92,21.77h17.84Z" style="fill: #fff;"/>
    <path d="m424.28,30.68h13.62l31.46,41.34V30.68h14.58v67.14h-12.56l-32.52-42.68v42.68h-14.58V30.68Z" style="fill: #fff;"/>
    <path d="m537.1,98.97c-4.93,0-9.5-.9-13.72-2.68s-7.86-4.24-10.93-7.34c-3.07-3.1-5.47-6.76-7.19-10.98-1.73-4.22-2.59-8.73-2.59-13.53v-.19c0-4.8.86-9.29,2.59-13.48,1.73-4.19,4.12-7.86,7.19-11.03,3.07-3.17,6.75-5.66,11.03-7.48s9.02-2.73,14.2-2.73c3.13,0,5.99.26,8.58.77,2.59.51,4.94,1.22,7.05,2.11,2.11.9,4.06,1.98,5.85,3.26,1.79,1.28,3.45,2.69,4.99,4.22l-9.4,10.84c-2.62-2.37-5.29-4.22-8.01-5.56-2.72-1.34-5.77-2.01-9.16-2.01-2.81,0-5.42.54-7.82,1.63-2.4,1.09-4.46,2.59-6.19,4.51-1.72,1.92-3.07,4.14-4.03,6.67-.96,2.53-1.44,5.23-1.44,8.1v.19c0,2.88.48,5.6,1.44,8.15.96,2.56,2.28,4.8,3.98,6.71,1.69,1.92,3.74,3.44,6.14,4.56,2.4,1.12,5.04,1.68,7.91,1.68,3.84,0,7.08-.7,9.73-2.11,2.65-1.4,5.29-3.32,7.91-5.75l9.4,9.5c-1.73,1.86-3.52,3.52-5.37,4.99-1.85,1.47-3.89,2.73-6.09,3.79-2.21,1.05-4.62,1.86-7.24,2.4-2.62.54-5.56.82-8.82.82Z" style="fill: #fff;"/>
    <path d="m582.01,30.68h50.55v13.14h-35.97v13.62h31.65v13.14h-31.65v14.1h36.45v13.14h-51.03V30.68Z" style="fill: #fff;"/>
  </g>
</svg>