<?xml version="1.0" encoding="UTF-8"?>
<svg id="Layer_2" data-name="Layer 2" xmlns="http://www.w3.org/2000/svg" viewBox="0 0 184.65 56.73">
  <g id="Layer_1-2" data-name="Layer 1">
    <g id="Layer_2-2" data-name="Layer 2">
      <g id="Layer_1-2" data-name="Layer 1-2">
        <path d="m63.39,28c-.22-5.52,4.07-10.17,9.59-10.4.03,0,.06,0,.08,0h.41c5.1,0,8.11,3,9,6.51l-3.17,1.06c-.59-2.7-3.07-4.57-5.83-4.38-3.3,0-6.61,2.41-6.61,7.27s3.23,7.18,6.65,7.18c2.76.08,5.22-1.75,5.95-4.41l3.11,1c-1.11,4.07-4.89,6.82-9.1,6.63-5.47.1-9.99-4.25-10.09-9.72-.01-.24,0-.49,0-.74Z" style="fill: #fff;"/>
        <path d="m88.74,38h-3.28v-20.46h3.28v8c.96-1.14,2.4-1.78,3.9-1.72,3.39,0,5,2.43,5,5.46v8.72h-3.16v-8.14c.2-1.44-.8-2.78-2.24-3-.2-.02-.39-.02-.59,0-1.58,0-2.86,1.28-2.86,2.86h0c0,.08,0,.17,0,.25l-.05,8.03Z" style="fill: #fff;"/>
        <path d="m105,30.12l3.52-.55c.8-.1,1-.51,1-1,0-1.16-.78-2.09-2.6-2.09-1.43-.12-2.69.94-2.82,2.37v.15l-3-.67c.25-2.38,2.41-4.5,5.79-4.5,4.24,0,5.85,2.4,5.85,5.2v6.83c0,.74.05,1.48.17,2.21h-3c-.11-.58-.15-1.17-.13-1.76-.93,1.43-2.54,2.25-4.24,2.17-2.37.2-4.46-1.57-4.66-3.94v-.2c-.05-2.53,1.76-3.89,4.12-4.22Zm4.54,2.21v-.63l-3.59.54c-1.01.03-1.82.86-1.83,1.87.02,1.01.84,1.81,1.85,1.79.01,0,.02,0,.03,0h.15c1.71.18,3.25-1.06,3.43-2.78,0,0,0-.01,0-.02.01-.26,0-.52-.05-.77h.01Z" style="fill: #fff;"/>
        <path d="m118.32,17.26c1.18-.02,2.15.93,2.17,2.11,0,0,0,0,0,.01h0c0,1.18-.96,2.14-2.14,2.14-1.18,0-2.14-.96-2.14-2.14,0-1.17.94-2.12,2.11-2.14v.02Zm-1.6,20.8v-13.82h3.28v13.76l-3.28.06Z" style="fill: #fff;"/>
        <path d="m127.47,38h-3.27v-13.76h3.19v1.83c.85-1.43,2.41-2.29,4.07-2.23,3.36,0,5,2.43,5,5.46v8.7h-3.27v-8.14c0-1.69-.77-3.06-2.83-3.06-1.6.01-2.89,1.32-2.88,2.92h0v8.28Z" style="fill: #fff;"/>
        <path d="m140.42,38v-20.46h3.28v20.46h-3.28Z" style="fill: #fff;"/>
        <path d="m149.55,17.26c1.18,0,2.13.94,2.14,2.12,0,1.18-.94,2.13-2.12,2.14-1.18,0-2.13-.94-2.14-2.12,0,0,0-.01,0-.02.01-1.17.95-2.11,2.12-2.12Zm-1.61,20.8v-13.82h3.25v13.76l-3.25.06Z" style="fill: #fff;"/>
        <path d="m158.71,38h-3.28v-13.76h3.19v1.83c.85-1.43,2.41-2.28,4.07-2.23,3.36,0,5,2.43,5,5.46v8.7h-3.28v-8.14c.2-1.44-.8-2.78-2.24-3-.2-.02-.4-.02-.6,0-1.59.02-2.87,1.31-2.87,2.9-.01.12-.01.23,0,.35v7.89Z" style="fill: #fff;"/>
        <path d="m178.88,30.05l5.77,8h-4l-4-5.67-1.69,1.78v3.84h-3.25v-20.46h3.25v12.26l5.28-5.56h4.35l-5.71,5.81Z" style="fill: #fff;"/>
        <path d="m24.56,12l14.18,8.14v16.36l-14.14,8.19-14.17-8.12v-16.35l14.13-8.22m0-12l-5.2,3L5.2,11.22,0,14.22v28.37l5.2,3,14.18,8.14,5.2,3,5.2-3,14.13-8.2,5.2-3V14.12l-5.2-3L29.74,3l-5.2-3h.02Z" style="fill: #fff;"/>
      </g>
    </g>
  </g>
</svg>