<?xml version="1.0" encoding="UTF-8"?>
<svg id="Layer_2" data-name="Layer 2" xmlns="http://www.w3.org/2000/svg" viewBox="0 0 93.04 20">
  <g id="Layer_1-2" data-name="Layer 1">
    <g>
      <path d="m27.53,0C25.04,0,23.61,1.41,23.61,3.75h0c0,2.26,1.42,3.72,3.87,3.72,2.25,0,3.56-1.16,3.78-2.99h-1.7c-.16,1.05-.8,1.68-2.07,1.68-1.4,0-2.22-.81-2.22-2.42s.74-2.42,2.22-2.42c1.22,0,1.85.61,2.02,1.67h1.69C30.98,1.21,29.83,0,27.53,0Z" style="fill: #fff;"/>
      <path d="m35.61,7.47c2.38,0,3.84-1.45,3.84-3.76S37.86,0,35.61,0c-2.38,0-3.84,1.35-3.84,3.76s1.59,3.71,3.84,3.71Zm0-6.16c1.31,0,2.19.77,2.19,2.45s-.8,2.4-2.19,2.4c-1.31,0-2.19-.82-2.19-2.45s.8-2.4,2.19-2.4Z" style="fill: #fff; fill-rule: evenodd;"/>
      <path d="m41.97.12h-1.63v7.23h1.63V2.45c.43-.82,1.01-1.19,1.94-1.19,1.17,0,1.76.54,1.76,1.7v4.39h1.63V2.73c0-1.73-.95-2.73-2.63-2.73-1.48,0-2.3.77-2.71,2.04V.12Z" style="fill: #fff;"/>
      <path d="m49.69,5.14h-1.7,0c.18,1.45,1.26,2.34,3.6,2.34s3.32-.96,3.32-2.25c0-1.09-.52-1.85-2.1-2.03l-2.18-.26c-.64-.07-.88-.33-.88-.75,0-.51.39-.9,1.63-.9s1.66.41,1.76,1.05h1.69C54.62.95,53.73,0,51.42,0s-3.25.99-3.25,2.28c0,1.13.6,1.81,2.19,2l2.09.24c.69.09.88.38.88.77,0,.52-.47.91-1.71.91s-1.8-.34-1.93-1.06Z" style="fill: #fff;"/>
      <path d="m55.52,3.76c0,2.12,1.31,3.71,3.77,3.71,2.05,0,3.32-.97,3.68-2.46h-1.67c-.24.72-.86,1.14-1.97,1.14-1.23,0-2.02-.72-2.16-2.01h5.85c.01-2.53-1.08-4.15-3.72-4.15-2.37,0-3.78,1.52-3.78,3.76Zm5.79-.72h-4.11c.21-1.16.96-1.76,2.09-1.76,1.29,0,1.91.69,2.02,1.76Z" style="fill: #fff; fill-rule: evenodd;"/>
      <path d="m65.45.12h-1.63v7.23h1.63V2.45c.43-.82,1.01-1.19,1.94-1.19,1.17,0,1.76.54,1.76,1.7v4.39h1.63V2.73c0-1.73-.95-2.73-2.63-2.73-1.48,0-2.3.77-2.71,2.04V.12Z" style="fill: #fff;"/>
      <path d="m73.17,5.14h-1.7,0c.18,1.45,1.26,2.34,3.6,2.34s3.32-.96,3.32-2.25c0-1.09-.52-1.85-2.1-2.03l-2.18-.26c-.64-.07-.88-.33-.88-.75,0-.51.39-.9,1.63-.9s1.67.41,1.76,1.05h1.69C78.11.95,77.22,0,74.91,0s-3.25.99-3.25,2.28c0,1.13.6,1.81,2.19,2l2.09.24c.69.09.88.38.88.77,0,.52-.47.91-1.71.91s-1.8-.34-1.93-1.06Z" style="fill: #fff;"/>
      <path d="m83.12,9.13L86.15.12h-1.7l-2.09,6.33L80.18.12h-1.8l2.37,6.44h1.57l-.4,1.23h-2.75v1.34h3.95Z" style="fill: #fff;"/>
      <path d="m87.83,5.14h-1.7,0c.18,1.45,1.26,2.34,3.6,2.34s3.32-.96,3.32-2.25c0-1.09-.52-1.85-2.1-2.03l-2.18-.26c-.64-.07-.88-.33-.88-.75,0-.51.39-.9,1.63-.9s1.67.41,1.76,1.05h1.69C92.76.95,91.88,0,89.57,0s-3.25.99-3.25,2.28c0,1.13.6,1.81,2.19,2l2.09.24c.69.09.88.38.88.77,0,.52-.47.91-1.71.91s-1.8-.34-1.93-1.06Z" style="fill: #fff;"/>
      <path d="m19.86,10.06v-2.71h0,0V.12h-9.93C4.44.12,0,4.57,0,10.06s4.45,9.94,9.93,9.94,9.93-4.45,9.93-9.94ZM7.67,5.09L12.64.12v7.23h7.22l-4.96,4.97h-7.22v-7.23Z" style="fill: #fff; fill-rule: evenodd;"/>
    </g>
  </g>
</svg>