<?xml version="1.0" encoding="UTF-8"?>
<svg id="Layer_2" data-name="Layer 2" xmlns="http://www.w3.org/2000/svg" viewBox="0 0 750 500">
  <g id="Layer_1-2" data-name="Layer 1">
    <path d="m712.09,213.93c-7.6,2.26-16.02,4.32-19.72,4.32,4.93-9.25,11.1-16.65,17.26-22.61,3.7-3.7,9.86-8.42,16.03-8.42,5.34,0,7.6,2.26,7.6,7.4,0,9.86-10.28,15.82-21.17,19.31h0Zm10.69,33.3c1.23-1.65-1.03-3.91-2.67-1.65-5.14,5.76-14.18,13.36-23.83,13.36-8.22,0-12.95-5.55-12.95-14.59,0-6.78,3.5-15.41,6.17-19.73,5.96-1.23,17.87-3.91,23.62-5.55,19.52-5.96,30.61-12.74,30.61-25.28,0-8.63-5.95-11.71-13.97-11.71-23.62,0-58.96,33.7-58.96,65.76,0,10.28,6.58,18.29,17.88,18.29,14.79,0,26.5-9.04,34.1-18.9h0Zm9.25-219.49c.82,0,1.84-.61,1.64-1.85l-3.5-23.83c-.41-1.65-1.02-2.06-2.05-2.06-.62,0-1.23.41-1.85,1.44-1.03,2.05-2.67,3.9-5.75,3.9-5.34,0-10.27-3.9-23.01-3.9-16.64,0-38.62,7.19-38.62,31.24s19.31,32.06,35.95,38.01c17.46,6.38,31.43,11.31,31.43,29.39,0,20.35-14.38,26.92-27.94,26.92-15,0-32.66-7.19-39.03-30.82-.62-2.06-1.23-2.47-2.67-2.47-1.23,0-2.26.82-2.26,3.08v30.63c0,1.84,1.03,2.67,2.05,2.67.82,0,1.65-.62,2.06-1.44,1.23-1.85,2.67-3.5,6.16-3.5,6.78,0,14.79,8.22,34.31,8.22,17.05,0,46.02-5.34,46.02-39.04,0-13.36-5.55-30.62-38.01-39.66-23.01-6.38-30.41-16.03-30.41-27.95,0-10.07,5.96-19.94,22.6-19.94,8.22,0,21.57,2.26,30.61,19.73,1.03,1.23,1.65,1.23,2.27,1.23h0Zm-98.82-5.75c2.46,0,4.93-.62,5.34-1.03-.21,3.5-3.29,8.84-11.71,10.48-.62.21-1.23.83-1.23,1.65s.61,1.64,1.85,1.64c12.32,0,19.31-11.1,19.31-20.34,0-8.22-5.55-13.16-12.33-13.16-4.93,0-11.3,2.47-11.3,10.48,0,7.4,5.34,10.28,10.07,10.28h0Zm21.57,170.57c0,5.14-2.05,12.13-6.37,19.73-8.42,13.56-15,16.23-20.75,16.23-4.93,0-6.98-3.9-6.98-9.65,0-4.94,2.05-11.51,5.95-17.27,5.76-9.04,13.77-16.64,20.96-16.64,4.72,0,7.19,2.46,7.19,7.6h0Zm-39.24,106.25c-19.72,0-25.68-11.51-25.68-17.06s2.06-8.84,7.6-12.54c3.7-2.67,9.25-5.34,13.56-6.98,4.93,2.05,12.12,6.37,14.59,8.63,10.68,7.4,12.73,11.71,12.73,15.62,0,9.86-15.2,12.33-22.8,12.33h0Zm62.45-109.33c2.06,0,4.11-1.03,4.11-4.73,0-3.29-3.08-4.31-5.96-4.31-3.28,0-7.39.82-11.71,3.69-1.02.83-3.69,2.06-5.34,1.03-3.28-2.26-6.37-3.9-14.38-3.9s-19.72,4.73-27.32,15c-5.34,7.6-6.37,12.95-6.37,18.29s2.26,9.25,3.7,11.51c.41.61.61.82.61,1.44,0,1.23-1.64,2.05-4.31,2.87-4.72,1.65-12.74,6.17-12.74,14.39,0,5.34,4.32,10.48,9.04,13.77,0,0-9.86,2.67-17.67,6.99-6.16,3.28-12.94,8.63-12.94,16.02,0,8.64,7.4,22.61,37.6,22.61,17.67,0,28.76-6.37,33.07-11.3,3.29-3.7,3.7-8.02,3.7-10.69,0-9.66-10.68-18.7-22.39-25.28-7.6-4.31-18.49-9.45-18.49-17.05,0-2.06.61-4.11,2.67-5.35,1.44-1.02,3.7-1.64,6.16-1.64,3.29,0,7.6,1.03,10.68,1.03,9.66,0,22.6-3.29,30.82-20.35,2.06-4.73,3.08-9.66,3.08-13.77,0-5.34-.82-6.57-.82-9.04,0-2.05,2.06-3.29,6.16-3.29,5.55-.2,5.55,2.06,9.04,2.06h0Zm-110.32,24.45c-7.6,2.26-15.82,4.32-19.72,4.32,5.14-9.25,11.3-16.65,17.46-22.61,3.7-3.7,9.86-8.42,16.03-8.42,5.13,0,7.6,2.26,7.6,7.4,0,9.86-10.27,15.82-21.37,19.31h0Zm10.69,33.3c1.43-1.65-1.03-3.91-2.68-1.65-5.13,5.76-14.17,13.36-23.83,13.36-8.42,0-12.94-5.55-12.94-14.59,0-6.78,3.49-15.41,6.17-19.73,5.95-1.23,18.07-3.91,23.62-5.55,19.72-5.96,30.61-12.74,30.61-25.28,0-8.63-5.96-11.71-13.97-11.71-23.62,0-58.96,33.7-58.96,65.76,0,10.28,6.78,18.29,18.08,18.29,14.58,0,26.29-9.04,33.9-18.9h0Zm-52.19-89.4c0,.62-.2,1.64-.82,2.67-14.38,31.44-28.76,62.68-42.73,94.12-.82,1.65-2.05,4.73-2.05,6.99,0,2.67,2.05,4.93,4.72,4.93,1.44,0,3.29-.61,4.52-1.02,7.81-3.09,16.03-11.72,20.96-19.12,1.02-1.64-.82-3.08-2.06-2.05-2.05,1.85-7.6,9.25-13.35,12.53-1.03.62-2.06.62-1.44-1.64l44.58-99.05c.82-1.85,1.03-2.88,1.03-3.91,0-1.23-.82-1.85-2.06-1.85-2.05,0-4.72.62-7.8.82-2.67.21-7.4.62-11.51.83-1.02,0-1.64,1.02-1.64,1.85,0,1.02.82,1.64,2.05,1.64,2.06,0,4.32,0,6.58.62.82.41,1.02,1.02,1.02,1.64Zm78.48-68.43c0-10.9,8.01-11.92,15-12.54,2.67-.41,3.29-4.73-.62-4.73h-54.03c-3.7,0-3.7,4.94,0,5.14,10.68.62,19.31,2.67,19.31,12.95v19.52c0,4.32-2.05,7.4-4.52,9.04-9.44,7.81-21.36,8.43-28.35,8.43-34.31,0-49.71-29.59-49.71-59.19,0-24.04,12.12-61.65,51.77-61.65,35.54,0,48.28,23.02,52.59,31.85,1.44,2.68,4.73,2.06,4.73,0V9.87c0-2.68-3.91-3.29-4.73,0-.82,3.28-2.88,5.34-5.55,5.34-2.05,0-4.72-1.65-5.75-2.26-10.68-6.78-20.95-12.13-41.29-12.13-32.87,0-73.34,16.44-73.34,66.38s38,65.97,71.28,65.97,49.93-16.65,53.01-18.7v-25.07h.2,0Zm-118.33,68.43c0,.62-.21,1.64-.82,2.67-14.38,31.44-28.76,62.68-42.73,94.12-.62,1.65-2.06,4.73-2.06,6.99,0,2.67,2.06,4.93,4.73,4.93,1.44,0,3.29-.61,4.52-1.02,7.8-3.09,16.02-11.72,20.95-19.12,1.03-1.64-.82-3.08-2.05-2.05-1.85,1.85-7.6,9.25-13.36,12.53-1.02.62-2.05.62-1.43-1.64l44.58-99.05c.82-1.85,1.02-2.88,1.02-3.91,0-1.23-.82-1.85-2.26-1.85-2.05,0-4.72.62-7.8.82-2.67.21-7.4.62-11.51.83-1.02,0-1.64,1.02-1.64,1.85,0,1.02.82,1.64,2.05,1.64,2.06,0,4.32,0,6.58.62,1.02.41,1.23,1.02,1.23,1.64h0Zm-63.48,26.72c8.01,0,9.86,6.78,9.66,13.35,0,21.58-24.66,62.68-41.3,62.68-6.78,0-9.65-4.93-9.65-11.3,0-24.45,24.45-64.73,41.29-64.73h0Zm-3.7-4.94c-24.03,0-46.01,30.21-46.01,61.25,0,12.74,5.75,25.27,21.36,25.27,24.65,0,44.99-35.34,44.99-57.54,0-13.97-3.29-28.98-20.34-28.98ZM333.27,1.64c-3.7,0-3.7,3.7-1.64,4.32,4.1.82,12.73,1.64,12.73,12.95.21,26.51.21,61.44-.82,89.8-.2,10.07-3.29,18.71-11.91,19.73-3.29.21-3.29,3.91-1.03,3.91h38.62c2.06,0,2.88-3.5.21-3.91-5.96-1.02-15.62-1.02-16.23-19.73-.82-18.29-1.44-87.13-1.44-87.13l96.76,107.68h8.01s0-100.69.62-108.3c.61-8.83,3.49-13.77,13.14-14.38,4.73-.41,3.91-4.73.62-4.73h-39.24c-4.72,0-3.49,4.32-1.44,4.32,4.32.61,17.67,2.05,18.29,15,.62,18.7,1.44,77.06,1.44,77.06L363.88,1.85h-30.61v-.21h0Zm34.51,188.66c1.03,0,1.85-.62,2.06-1.64l8.62-27.34c.62-1.64-.2-2.67-1.64-2.67-.61,0-1.23.21-1.85.82-1.64,1.65-3.49,3.29-5.13,3.29-.82,0-1.65-.61-2.47-1.23-7.6-9.45-19.93-10.89-25.88-10.89-27.33,0-50.95,17.88-64.72,39.87-8.42,12.94-12.73,27.33-12.73,41.51,0,22.6,15.61,35.14,35.95,35.14,9.04,0,16.02-1.03,28.35-6.17,2.67-1.02,5.75-2.26,7.6-2.26,3.08,0,3.29,4.53,3.49,8.64,0,1.64,1.03,2.05,2.06,2.05.82,0,1.64-.41,2.05-1.65l11.51-32.67c.82-2.67-.21-3.7-1.24-3.7-1.64,0-2.46.62-3.69,2.88-5.14,8.01-8.84,13.15-26.71,21.99-7.6,3.49-16.23,5.75-23.22,5.75-15.2,0-21.16-11.71-21.16-26.3,0-19.32,9.04-39.46,23.01-56.31,8.84-11.1,22.6-23.64,38.42-23.64s26.5,11.31,24.86,32.06c-.21,1.65,1.03,2.47,2.46,2.47h0Zm-69.02-78.5V20.96c0-11.3,8.01-14.38,16.64-15,3.28,0,3.69-4.32-.62-4.32h-53.62c-3.7,0-4.31,4.11-.61,4.32,8.01.82,17.66,4.73,17.66,15v90.84c0,10.07-3.7,16.64-15.61,16.64-4.73,0-3.49,3.91,0,3.91h52.8c2.67,0,3.49-3.91-1.03-3.91-11.3,0-15.61-7.6-15.61-16.64h0ZM172,21.17c0,3.29-1.03,6.16-2.46,7.6-4.93,9.25-11.92,19.11-21.99,30.62-25.67,28.77-59.98,62.68-71.69,70.49-3.7,2.67-4.73,0-4.73-2.67,0-2.06,0-52.82.82-85.49.83-32.68,25.27-33.29,31.64-33.91,6.57-.62,4.31-6.78.62-6.78H3.54C-.77,1.03-1.18,7.4,2.51,7.4c23.63,0,32.67,14.59,32.88,25.28.61,15.61,1.43,157.83,0,191.53-1.24,32.67-21.58,33.7-30.2,34.32-5.76.41-5.76,6.37.61,6.37,3.7,0,30.61-.82,49.92-.82,22.4,0,35.95,0,54.03.82,5.34.21,3.08-6.99-.61-6.99-30.41,0-35.75-18.7-37.39-31.65-1.65-12.74-1.23-71.51-.62-78.5.62-7.4,6.99-5.34,9.66-3.7,14.99,10.07,106.62,120.84,106.62,120.84h73.96c4.31,0,3.28-6.17,0-6.37-12.74-1.03-24.66-2.06-41.71-16.03-16.43-13.36-111.14-126.18-111.14-126.18,0,0,42.12-44.39,74.78-74.4,31.64-28.97,49.3-33.29,53-34.32,3.91-1.02,3.29-6.78-2.05-6.37-8.63.41-26.3,1.03-38.62,1.03-21.37,0-39.24-1.44-42.94-1.44-5.75,0-6.98,6.37-.62,7.4,4.32.82,8.43,1.23,12.95,2.88,5.34,2.05,6.98,5.96,6.98,10.07Zm454.02,288.12c-2.06,0-2.67,3.7.2,3.7,3.29,0,10.07.82,10.07,10.68l-.62,79.33c0,8.63-3.08,15.82-11.09,15.82-2.67,0-2.67,3.5-.62,3.5h33.08c2.05,0,2.05-3.5-.41-3.5-4.73,0-13.15-2.05-13.36-15.82l-.82-80.76s84.64,99.46,85.26,100.08h5.75l.62-95.36c0-9.45,4.11-14.38,14.38-14.38,2.05,0,2.05-3.29,0-3.29h-36.98c-2.06,0-2.06,3.29,0,3.29,3.7,0,15.2.61,15.41,12.95l.82,69.46-72.73-85.7h-28.96Zm-102.1,55.69c0-28.97,13.35-51.17,38-51.17,21.98,0,38.62,21.17,38.62,51.17,0,36.99-14.99,53.23-38.62,53.23-23.01,0-38-22.2-38-53.23Zm38,58.37c33.08,0,56.7-23.02,56.7-58.37,0-31.03-23.01-56.31-56.7-56.31s-56.49,25.69-56.49,56.31c0,33.29,22.39,58.37,56.49,58.37Zm-158.39-98.85c0-10.28,5.96-10.69,19.72-10.69,24.04,0,48.48,11.92,48.48,50.14s-20.33,53.02-47.25,53.02h-5.75c-7.19,0-15.2-1.43-15.2-15.61v-76.86Zm-27.73-15.83c-3.7,0-3.09,4.32-.83,4.32,4.32,0,11.51,2.05,11.51,10.68v80.56c0,8.63-2.06,13.98-12.12,13.98-2.47,0-2.47,4.11-.21,4.11h53.83c23.62,0,62.65-11.31,62.65-57.95s-32.04-55.7-63.27-55.7h-51.56Zm-133.13.62c-2.05,0-2.67,3.7.21,3.7,3.29,0,10.06.82,10.06,10.68l-.61,79.33c0,8.63-3.08,15.82-11.1,15.82-2.67,0-2.67,3.5-.61,3.5h33.07c2.06,0,2.06-3.5-.41-3.5-4.72,0-13.15-2.05-13.35-15.82l-.82-80.76s84.64,99.46,85.25,100.08h5.76l.61-95.36c0-9.45,4.11-14.38,14.38-14.38,2.06,0,2.06-3.29,0-3.29h-36.98c-2.05,0-2.05,3.29,0,3.29,3.7,0,15.21.61,15.41,12.95l.82,69.46-72.72-85.7h-28.97Zm-102.92,55.69c0-28.97,13.35-51.17,38-51.17,21.99,0,38.63,21.17,38.63,51.17,0,36.99-15,53.23-38.63,53.23-23.01,0-38-22.2-38-53.23h0Zm38.21,58.37c33.07,0,56.7-23.02,56.7-58.37,0-31.03-23.01-56.31-56.7-56.31s-56.5,25.69-56.5,56.31c0,33.29,22.4,58.37,56.5,58.37Zm554.68,61.03H13.4v15.62h719.24v-15.62h0Zm0-21.78H13.4v6.78h719.24v-6.78h0ZM11.76,309.49c-2.67,0-2.47,3.7,0,3.5,9.66,0,15.41,4.11,15.41,13.97v76.66c0,11.51-8.01,14.59-14.38,14.59-2.06,0-2.88,4.11.61,4.11h98.82l5.96-31.65c.61-3.08-2.67-3.29-3.5-1.23-8.83,25.48-26.91,27.74-46.01,27.74s-24.25-3.29-24.25-12.33v-79.94c0-9.66,9.04-11.72,13.56-11.72,2.88,0,2.06-3.7-.2-3.7H11.76Z" style="fill: #fff; fill-rule: evenodd;"/>
  </g>
</svg>