<?xml version="1.0" encoding="UTF-8"?>
<svg id="Layer_2" data-name="Layer 2" xmlns="http://www.w3.org/2000/svg" viewBox="0 0 641.69 116.9">
  <g id="Layer_1-2" data-name="Layer 1">
    <g>
      <g id="MM_Head_background_Do_not_edit_" data-name="MM Head background (Do not edit)">
        <path d="m121.4,0l-40.6,15h-33.8L6.4,0l.3.2-.3-.2L.1,18.7l4.2,20.1-2.7,2,4,3-3.1,2.3,4,3.6-2.5,1.8,5.8,6.8L1.1,85.1h0l8.1,27.4,28.4-7.7h0l5.5,4.5,11.2,7.6h19.2l11.3-7.6,5.5-4.5h0l28.4,7.7,8.1-27.4h0l-8.8-26.8m-.1,0l5.8-6.7-2.5-1.8,4-3.6-3.1-2.3,4-3-2.6-2,4.2-20.1L121.4.1" style="fill: #fff;"/>
      </g>
      <g id="Logos">
        <g>
          <g>
            <path d="m566.8,58.8c-3.3-2.2-7-3.8-10.5-5.7-2.3-1.3-4.7-2.4-6.6-4-3.3-2.7-2.6-8.1.8-10.5,5-3.3,13.3-1.5,14.2,5.3,0,.1.1.2.3.2h7.6c.2,0,.3-.1.3-.3-.4-4.7-2.2-8.6-5.5-11.1-3.2-2.4-6.8-3.7-10.7-3.7-20,0-21.8,21.1-11,27.8,1.2.8,11.8,6.1,15.5,8.4,3.7,2.3,4.9,6.5,3.3,9.9-1.5,3-5.3,5.1-9.1,4.9-4.2-.2-7.4-2.5-8.5-6-.2-.6-.3-1.9-.3-2.4,0-.1-.1-.3-.3-.3h-8.2c-.1,0-.3.1-.3.3,0,5.9,1.5,9.2,5.5,12.2,3.8,2.8,7.9,4,12.2,4,11.2,0,17-6.3,18.1-12.9.8-6.5-1.1-12.3-6.8-16.1Z" style="fill: #fff;"/>
            <path d="m216,30.1h-12.4c-.1,0-.2.1-.3.2l-6.7,22.2c-.1.3-.5.3-.6,0l-6.7-22.2c0-.1-.1-.2-.3-.2h-12.5c-.1,0-.3.1-.3.3v56.6c0,.1.1.3.3.3h8.2c.1,0,.3-.1.3-.3v-43c0-.3.5-.4.6-.1l6.8,22.3.5,1.6c0,.1.1.2.3.2h6.3c.1,0,.2-.1.3-.2l.5-1.6,6.8-22.3c.1-.3.6-.2.6.1v43c0,.1.1.3.3.3h8.2c.1,0,.3-.1.3-.3V30.4c-.2-.2-.3-.3-.5-.3Z" style="fill: #fff;"/>
            <path d="m441.4,30.1c-.1,0-.2.1-.3.2l-6.7,22.2c-.1.3-.5.3-.6,0l-6.7-22.2c0-.1-.1-.2-.3-.2h-12.5c-.1,0-.3.1-.3.3v56.6c0,.1.1.3.3.3h8.2c.1,0,.3-.1.3-.3v-43c0-.3.5-.4.6-.1l6.8,22.3.5,1.6c0,.1.1.2.3.2h6.3c.1,0,.2-.1.3-.2l.5-1.6,6.8-22.3c.1-.3.6-.2.6.1v43c0,.1.1.3.3.3h8.2c.1,0,.3-.1.3-.3V30.4c0-.1-.1-.3-.3-.3,0,0-12.6,0-12.6,0Z" style="fill: #fff;"/>
            <path d="m335.8,30.1h-38.7c-.1,0-.3.1-.3.3v7.1c0,.1.1.3.3.3h15v49.2c0,.1.1.3.3.3h8.2c.1,0,.3-.1.3-.3v-49.2h15c.1,0,.3-.1.3-.3v-7.1c-.1-.2-.2-.3-.4-.3Z" style="fill: #fff;"/>
            <path d="m364.5,62.2l6-22.1c.1-.3.5-.3.6,0l6,22.1c0,.2-.1.4-.3.4h-12c-.2,0-.4-.2-.3-.4Zm19.6,25h7.5c.2,0,.3-.2.3-.4l-15.4-56.8c0-.1-.1-.2-.3-.2h-10.7c-.1,0-.2.1-.3.2l-15.4,56.8c0,.2.1.4.3.4h7.5c.1,0,.2-.1.3-.2l4.5-16.5c0-.1.1-.2.3-.2h16.5c.1,0,.2.1.3.2l4.5,16.5c-.2.1,0,.2.1.2Z" style="fill: #fff;"/>
            <path d="m491.6,62.2l6-22.1c.1-.3.5-.3.6,0l6,22.1c0,.2-.1.4-.3.4h-12c-.2,0-.4-.2-.3-.4Zm19.6,25h7.5c.2,0,.3-.2.3-.4l-15.4-56.8c0-.1-.1-.2-.3-.2h-10.7c-.1,0-.2.1-.3.2l-15.5,56.8c0,.2.1.4.3.4h7.5c.1,0,.2-.1.3-.2l4.5-16.5c0-.1.1-.2.3-.2h16.5c.1,0,.2.1.3.2l4.5,16.5c-.1.1,0,.2.2.2Z" style="fill: #fff;"/>
            <path d="m249.6,78.9v-17.6c0-.1.1-.3.3-.3h21.8c.1,0,.3-.1.3-.3v-7.1c0-.1-.1-.3-.3-.3h-21.8c-.1,0-.3-.1-.3-.3v-15c0-.1.1-.3.3-.3h24.8c.1,0,.3-.1.3-.3v-7.1c0-.1-.1-.3-.3-.3h-33.6c-.1,0-.3.1-.3.3v56.5c0,.1.1.3.3.3h34.6c.1,0,.3-.1.3-.3v-7.5c0-.1-.1-.3-.3-.3h-25.9c-.1.2-.2.1-.2-.1Z" style="fill: #fff;"/>
            <path d="m641.6,86.8l-28.3-29.3c-.1-.1-.1-.3,0-.4l25.5-26.5c.2-.2,0-.5-.2-.5h-10.4q-.1,0-.2.1l-21.6,22.5c-.2.2-.5,0-.5-.2v-22.1c0-.1-.1-.3-.3-.3h-8.2c-.1,0-.3.1-.3.3v56.6c0,.1.1.3.3.3h8.2c.1,0,.3-.1.3-.3v-24.9c0-.2.3-.4.5-.2l24.5,25.3s.1.1.2.1h10.4c.1,0,.3-.4.1-.5Z" style="fill: #fff;"/>
          </g>
          <g>
            <polygon points="121.4 0 71.5 36.5 80.8 14.9 121.4 0" style="fill: #fff;"/>
            <polygon points="6.3 0 55.8 36.8 46.9 14.9 6.3 0" style="fill: #fff;"/>
            <polygon points="103.4 84.6 90.2 104.6 118.6 112.4 126.7 85 103.4 84.6" style="fill: #fff;"/>
            <polygon points="1 85 9.1 112.4 37.5 104.6 24.3 84.6 1 85" style="fill: #fff;"/>
            <polygon points="36 50.7 28.1 62.5 56.2 63.8 55.3 33.8 36 50.7" style="fill: #fff;"/>
            <polygon points="91.7 50.7 72.1 33.5 71.5 63.8 99.6 62.5 91.7 50.7" style="fill: #fff;"/>
            <polygon points="37.5 104.6 54.5 96.5 39.9 85.2 37.5 104.6" style="fill: #fff;"/>
            <polygon points="73.2 96.5 90.2 104.6 87.8 85.2 73.2 96.5" style="fill: #fff;"/>
            <polygon points="90.2 104.6 73.2 96.5 74.6 107.4 74.4 112 90.2 104.6" style="fill: #fff;"/>
            <polygon points="37.5 104.6 53.3 112 53.2 107.4 54.5 96.5 37.5 104.6" style="fill: #fff;"/>
            <polygon points="53.6 78 39.5 73.9 49.4 69.4 53.6 78" style="fill: #fff;"/>
            <polygon points="74.1 78 78.3 69.4 88.3 73.9 74.1 78" style="fill: #fff;"/>
            <polygon points="37.5 104.6 40 84.6 24.3 85 37.5 104.6" style="fill: #fff;"/>
            <polygon points="87.7 84.6 90.2 104.6 103.4 85 87.7 84.6" style="fill: #fff;"/>
            <polygon points="99.6 62.5 71.5 63.8 74.1 78 78.3 69.4 88.3 73.9 99.6 62.5" style="fill: #fff;"/>
            <polygon points="39.5 73.9 49.4 69.4 53.6 78 56.2 63.8 28.1 62.5 39.5 73.9" style="fill: #fff;"/>
            <polygon points="28.1 62.5 39.9 85.2 39.5 73.9 28.1 62.5" style="fill: #fff;"/>
            <polygon points="88.3 73.9 87.8 85.2 99.6 62.5 88.3 73.9" style="fill: #fff;"/>
            <polygon points="56.2 63.8 53.6 78 56.9 94.9 57.6 72.7 56.2 63.8" style="fill: #fff;"/>
            <polygon points="71.5 63.8 70.1 72.6 70.8 94.9 74.1 78 71.5 63.8" style="fill: #fff;"/>
            <polygon points="74.1 78 70.8 94.9 73.2 96.5 87.8 85.2 88.3 73.9 74.1 78" style="fill: #fff;"/>
            <polygon points="39.5 73.9 39.9 85.2 54.5 96.5 56.9 94.9 53.6 78 39.5 73.9" style="fill: #fff;"/>
            <polygon points="74.4 112 74.6 107.4 73.3 106.4 54.4 106.4 53.2 107.4 53.3 112 37.5 104.6 43 109.1 54.2 116.8 73.4 116.8 84.7 109.1 90.2 104.6 74.4 112" style="fill: #fff;"/>
            <polygon points="73.2 96.5 70.8 94.9 56.9 94.9 54.5 96.5 53.2 107.4 54.4 106.4 73.3 106.4 74.6 107.4 73.2 96.5" style="fill: #fff;"/>
            <polygon points="123.5 38.8 127.7 18.7 121.4 0 73.2 35.2 91.7 50.7 117.9 58.3 123.7 51.6 121.2 49.8 125.2 46.2 122.1 43.9 126.1 40.8 123.5 38.8" style="fill: #fff;"/>
            <polygon points="0 18.7 4.2 38.8 1.5 40.8 5.6 43.9 2.5 46.2 6.5 49.8 4 51.6 9.8 58.3 36 50.7 54.5 35.2 6.3 0 0 18.7" style="fill: #fff;"/>
            <polygon points="117.9 58.3 91.7 50.7 99.6 62.5 87.8 85.2 103.4 85 126.7 85 117.9 58.3" style="fill: #fff;"/>
            <polygon points="36 50.7 9.8 58.3 1 85 24.3 85 39.9 85.2 28.1 62.5 36 50.7" style="fill: #fff;"/>
            <polygon points="71.5 63.8 73.2 35.2 80.8 14.9 46.9 14.9 54.5 35.2 56.2 63.8 56.8 72.7 56.9 94.9 70.8 94.9 70.9 72.7 71.5 63.8" style="fill: #fff;"/>
          </g>
        </g>
      </g>
    </g>
  </g>
</svg>