<?xml version="1.0" encoding="UTF-8"?>
<svg id="Layer_2" data-name="Layer 2" xmlns="http://www.w3.org/2000/svg" viewBox="0 0 529.2 151.7">
  <g id="layer">
    <path d="m415.9,151.4V5.7h49.3v114.8h64v31.2" style="fill: #fff;"/>
    <path d="m271.8,151.6c-21.8-15.7-32.1-42-32.1-67.2,0-41.7,28-84.4,81-84.4,23.6,0,46.1,8.3,62.6,25,6.6,6.9,9.8,12,13,18.2l-41.5,20.4c-3.9-9.3-11.5-25.8-32.4-25.8-10.8,0-17.7,5.2-21.1,8.3-11.8,11.3-11.8,28.9-11.8,35.1,0,23.1,8.6,44.9,32.9,44.9s29.9-20.4,31.6-25.5l42,20.4c-3.9,7.4-7.9,14.5-15.2,22.1-3.2,3.2-6.6,5.9-10.3,8.3" style="fill: #fff;"/>
    <path d="m101.8,151.6c-2.2-1.5-3.9-2.9-5.9-4.7-15.5-15-15.7-32.4-16.2-48.6V5.9h49.6v97.1c0,6.6.2,13.5,5.6,18.6,3.9,4.2,10.1,5.6,15.7,5.6,7.9,0,12.8-2.9,15.7-5.4,5.6-5.4,5.9-12.3,5.9-18.9V5.9h49.8v82.7c0,17.9,0,41-18.4,58.4-1.7,1.7-3.7,3.2-5.9,4.7" style="fill: #fff;"/>
    <g>
      <path d="m54.7,40.8l-26.7-5.6S1.5,40.8,1.3,40.8s0,.2,0,.2l.2,1.5h0s.5,0,.7.2l.5,2.2s0,.2.2.2h50.4c.3,0,.2,0,.2,0l.5-2.2c.2-.5.7-.5.7-.5h0l.2-1.5v-.2h-.2v.1Z" style="fill: #fff;"/>
      <path d="m52,45.7h0v-.8h-4.2v.7h.2v.2s0,.7.5,1v.2h-.2v.4h0v15l-.2.2h0v.2h-.2v.5h3.9v-.5h-.2l-.2-.2v-15h0v-.4h0s-.2-.2,0-.2c.5-.2.5-.7.5-1v-.1h.2v-.2h-.1Z" style="fill: #fff;"/>
      <path d="m43.2,45.7h0v-.8h-4.2v.7h.3v.2s0,.7.5,1v.2h-.2v.4h0v15l-.2.2h0v.2h-.2v.5h3.9v-.5h-.2l-.2-.2v-15h0v-.4h0s-.2-.2,0-.2c.5-.2.5-.7.5-1v-.1h.2v-.2h-.2Z" style="fill: #fff;"/>
      <path d="m34.6,45.7h0v-.8h-4.2v.7h.2v.2s0,.7.5,1v.2h-.2v.4h0v15l-.2.2h0v.2h-.2v.5h3.9v-.5h-.2l-.2-.2v-15h0v-.4h-.2s-.2-.2,0-.2c.2-.2.5-.7.5-1v-.1h.2l.1-.2Z" style="fill: #fff;"/>
      <path d="m25.8,45.7h0v-.8h-4.2v.7h.2v.2s0,.7.5,1v.2h-.2v.4h0v15l-.2.2h0v.2h-.2v.5h3.9v-.5h-.3l-.2-.2v-15h0v-.4h0s-.2-.2,0-.2c.5-.2.5-.7.5-1v-.1h.2v-.2Z" style="fill: #fff;"/>
      <path d="m17,45.7h0v-.8h-4.2v.7h.2v.2s0,.7.5,1v.2h-.2v.4h0v15l-.2.2h0v.2h-.2v.5h3.9v-.5h-.2l-.2-.2v-15h0v-.4h-.2s-.2-.2,0-.2c.5-.2.5-.7.5-1v-.1h.2l.1-.2Z" style="fill: #fff;"/>
      <path d="m8.4,45.7h0v-.8h-4.2v.7h.2v.2s0,.7.5,1v.2h-.2v.4h0v15l-.2.2h0v.2h-.2v.5h3.9v-.5h-.2l-.2-.2v-15h0v-.4h-.2s-.2-.2,0-.2c.2-.2.5-.7.5-1v-.1h.2l.1-.2Z" style="fill: #fff;"/>
      <path d="m40.5,29.7h-.5v-.5h-.5v-.5h-.2s-.2,0-.2-.2c0-.5.2-4.7-2-7.4-1.7-2.5-3.9-3.7-5.2-4.4,0-.5-.7-.7-1.2-1-.2,0-.2-.2-.2-.2v-.2c0-.2.2-.2.5-.2h.2v-.5s0-.2-.2-.2h-.5s-.2,0-.2-.2v-.2q0-.2-.2-.2v-2.9h.2v-.2h-.2v-.4h0v-.5h-.4l-1-1h0s0-.2-.2-.2,0-.2,0-.2h0v-.2l-.2-.5h0s-.2.2-.2.5v.2h0v.2q-.2,0-.2.2h0s-.5.7-1,1h-.4v.2h0v.4h-.2v.2h.2v2.9l-.2.2v.2s0,.2-.2.2h-.5s-.2,0-.2.2v.5h.2c.2,0,.5,0,.5.2v.2c0,.2-.2.2-.2.2-.2,0-1,.2-1.2,1-1.2.5-3.7,2-5.2,4.4-2.2,2.9-2,6.9-2,7.4,0,0,0,.2-.2.2h-.2v.5h-.5v.5h-.5v.5h0c.2,0,.5.2.5.5,0,.5.2.5.5.5v1.7c0,.5-.2.5-.5.5h0v1.7l12.3-2.7h0l12.3,2.7v-1.7h0c-.2,0-.5-.2-.5-.5v-1.7s.5,0,.5-.5c0-.2.2-.5.5-.5h0v-.5h0l-1.2.3Z" style="fill: #fff;"/>
      <polygon points="54 65.3 52 65.3 52 63.8 4.2 63.8 4.2 65.3 2.2 65.3 2.2 69 0 69 0 72.4 56.2 72.4 56.2 69 54 69 54 65.3" style="fill: #fff;"/>
    </g>
  </g>
</svg>